<svg width="1600" height="88" viewBox="0 0 1600 88" fill="none" xmlns="http://www.w3.org/2000/svg">
<g clip-path="url(#clip0_3_4)">
<path d="M286.359 18.7025C119.295 31.2433 -97 127.069 -97 127.069L-97 683.729C-97 683.729 54.5401 770.189 186.895 775.527C406.001 784.364 568.486 666.371 788.038 670.828C1031.85 675.778 1145.32 758.369 1389.11 763.714C1535.75 766.93 1763 743.073 1763 743.073L1763 -80C1763 -80 1692.25 8.62128 1639.95 18.7025C1520.99 41.6293 1444.21 0.888023 1318.11 3.2215C1090.96 7.42503 982.149 85.6883 754.908 83.2067C566.222 81.146 473.319 4.66821 286.359 18.7025Z" fill="#194484"/>
</g>
<defs>
<clipPath id="clip0_3_4">
<rect width="1600" height="88" fill="white"/>
</clipPath>
</defs>
</svg>
