<svg width="2135" height="312" viewBox="0 0 2135 312" fill="none" xmlns="http://www.w3.org/2000/svg">
<g clip-path="url(#clip0_1_6)">
<path d="M464.898 194.225C262.75 226.088 8.93749 294.274 8.93749 294.274L70.1928 1045.31C70.1928 1045.31 263.276 1135.57 424.943 1128.93C692.574 1117.93 878.672 958.093 1146.41 941.721C1443.74 923.54 1590.09 1012.86 1887.42 995.164C2066.27 984.52 2340.57 932.898 2340.57 932.898L2258.81 0.46264C2258.81 0.46264 2175.52 42.346 2112.84 59.818C1970.29 99.5529 1872.77 57.557 1719.48 72.9202C1443.35 100.596 1318.65 206.718 1041.75 226.26C811.824 242.487 691.121 158.568 464.898 194.225Z" fill="#194484" fill-opacity="0.07"/>
</g>
<defs>
<clipPath id="clip0_1_6">
<rect width="2135" height="312" fill="white"/>
</clipPath>
</defs>
</svg>
